<svg width="970" height="231" viewBox="0 0 970 231" fill="none" xmlns="http://www.w3.org/2000/svg">
<path d="M321.668 130.24C286.449 130.24 275.842 114.964 275.842 83.3528C275.842 53.0127 285.6 37.5249 321.668 37.5249H408.969C415.474 37.5249 420.746 42.7974 420.746 49.3024V60.542C420.746 67.047 415.474 72.3196 408.969 72.3196H330.153C320.607 72.3196 317.211 76.1386 317.211 86.1107C317.211 95.8691 320.607 99.6881 330.153 99.6881H380.224C415.442 99.6881 425.838 114.327 425.838 145.728C425.838 176.916 415.656 192.615 380.224 192.615H289.104C282.599 192.615 277.327 187.343 277.327 180.838V169.81C277.327 163.307 282.599 158.032 289.104 158.032H371.95C381.285 158.032 384.892 154.002 384.892 143.818C384.892 133.21 380.859 130.24 371.95 130.24H321.668Z" fill="#EB4666"/>
<path d="M502.215 130.876H555.467L528.736 74.4408L502.215 130.876ZM513.167 37.5257H543.454C547.949 37.5257 552.053 40.0845 554.03 44.1228L618.448 175.658C622.28 183.482 616.584 192.616 607.872 192.616H592.211C587.653 192.616 583.505 189.985 581.559 185.864L570.531 162.49H487.363L476.335 185.864C474.389 189.985 470.241 192.616 465.683 192.616H448.751C440.037 192.616 434.341 183.482 438.173 175.658L502.591 44.1228C504.568 40.0845 508.672 37.5257 513.167 37.5257Z" fill="#EB4666"/>
<path d="M728.801 71.0466H651.046C644.541 71.0466 639.269 65.774 639.269 59.269V49.3024C639.269 42.7974 644.541 37.5249 651.046 37.5249H773.033C779.538 37.5249 784.811 42.7974 784.811 49.3024V63.2391C784.811 66.3396 783.589 69.313 781.41 71.5182L694.855 159.094H773.033C779.538 159.094 784.811 164.366 784.811 170.871V180.838C784.811 187.343 779.538 192.615 773.033 192.615H651.046C644.541 192.615 639.269 187.343 639.269 180.838V165.05C639.269 161.916 640.518 158.911 642.738 156.702L728.801 71.0466Z" fill="#EB4666"/>
<path d="M881.765 161.428C845.909 161.428 840.182 149.759 840.182 115.177C840.182 80.5938 845.909 68.9249 881.765 68.9249C917.621 68.9249 923.349 80.5938 923.349 115.177C923.349 149.759 917.621 161.428 881.765 161.428ZM881.761 34.5521C813.233 34.5521 799.234 56.6205 799.234 115.177C799.234 173.733 813.237 195.797 881.765 195.797C950.294 195.797 964.296 173.733 964.296 115.177C964.296 84.8107 960.527 64.2622 947.344 51.5101L964.293 34.5632L881.761 34.5521Z" fill="#EB4666"/>
<path d="M0 134.863L34.0806 115.175L68.0611 134.863V213.393L93.2355 227.978C98.6849 231.136 105.405 231.141 110.86 227.993L195.422 179.197C200.869 176.052 204.226 170.24 204.226 163.948V66.3936C204.226 60.1022 200.869 54.2899 195.42 51.1452L110.86 2.35671C105.405 -0.791706 98.6849 -0.784331 93.2355 2.37146L68.0611 16.9566L170.122 75.9143V115.175L136.14 134.863V95.4865L34.0806 36.5214L8.79382 51.1415C3.35179 54.2881 0.000730876 60.0967 0.000730876 66.3825L0 134.863Z" fill="#EB4666"/>
<path d="M34.0806 115.175L34.0799 193.803L0 213.393V134.863L34.0806 115.175Z" fill="#8D2A3D"/>
</svg>
